# xmcd
#
# Track frame offsets: 
#        150
#        16920
#        31631
#        44428
#        57647
#        71597
#        83265
#        94571
#        110576
#        121799
#        133896
#        146869
#        157898
#        169301
#        184800
#        192930
#        210095
#        221864
#        236219
#        252239
#        265482
#        279804
#        302992
#        319451
#
# Disc length: 4564 seconds
#
# Revision: 0
# Processed by: cddbd v1.5.2PL0 Copyright (c) Steve Scherf et al.
# Submitted via: ExactAudioCopy v0.99pb4
#
DISCID=5e11d218
DTITLE=Various Artist - Blame It On The Dogg: The Swamp Dogg Antholog
DTITLE=y 1968-1978
DYEAR=1978
DGENRE=Soul
TTITLE0=C and The Shells - On Your Way Home
TTITLE1=Gene Pitney - She's A Heartbreaker
TTITLE2=Jerry Williams - Shipwrecked
TTITLE3=PATTI LA BELLE&THE BLUE BELLES - He's Gone
TTITLE4=Tommy Hunt - I Need A Woman Of My Own
TTITLE5=Inez and Charlie Foxx - (1-2-3-4-5-6-7) Count The Days
TTITLE6=The Drifters - Your Best Friend
TTITLE7=Jerry Williams - Your Man
TTITLE8=Gary (US) Bonds - I'm Glad You're Back
TTITLE9=Little Charles and The Sidewinders - Please Open Up The Door
TTITLE10=Jerry Williams - Run Run Roadrunner
TTITLE11=Kenny Carter - What's So Wrong With You Loving Me
TTITLE12=Slick 'n' The Family Brick - Don't Trust A Woman
TTITLE13=Swamp Dogg - Straight From My Heart
TTITLE14=Z.Z. Hill - Touch 'Em With Love
TTITLE15=Obe Jessie and The Seeds Of Freedom - Who's The Blame
TTITLE16=Swamp Dogg - Don't Throw Your Love To The Wind
TTITLE17=Eleanor Grant - Plea #3 (Is It True Boy?)
TTITLE18=Arthur Conley - Complication #4
TTITLE19=Helen Curry - Shu-Doo-Pa-Poo-Poop (Love Being Your Fool)
TTITLE20=Eleanor Grant - The Other Woman
TTITLE21=Ruth Brown - Stop Knocking
TTITLE22=Wolfmoon - God Bless
TTITLE23=Eleanor Grant - Rockin' Your Baby Now
EXTD=
EXTT0=
EXTT1=
EXTT2=
EXTT3=
EXTT4=
EXTT5=
EXTT6=
EXTT7=
EXTT8=
EXTT9=
EXTT10=
EXTT11=
EXTT12=
EXTT13=
EXTT14=
EXTT15=
EXTT16=
EXTT17=
EXTT18=
EXTT19=
EXTT20=
EXTT21=
EXTT22=
EXTT23=
PLAYORDER=
